<?xml version="1.0" encoding="utf-8"?>
<svg xmlns="http://www.w3.org/2000/svg" viewBox="0 0 500 500">
  <g>
    <path style="fill: none; stroke: rgb(0, 0, 0);" d="M 347.911 284.281 C 347.911 284.67 347.422 283.581 347.349 283.508 C 347.017 283.176 346.211 282.566 346.014 282.173 C 345.964 282.073 344.914 281.587 344.68 281.822 C 343.907 282.595 343.777 283.849 342.994 284.632 C 342.708 284.918 341.944 282.421 341.729 282.314 C 341.032 281.965 340.043 284.492 340.043 284.492 C 340.043 284.492 339.119 284.011 338.779 284.351 C 338.461 284.669 338.741 285.442 338.427 285.756 C 337.184 286.999 336.733 289.682 337.936 290.884 C 338.137 291.085 337.095 292.432 337.585 292.921 C 337.909 293.246 338.54 296.742 337.866 297.417 C 337.056 298.227 337.012 295.461 336.39 296.083 C 335.568 296.905 337.111 299.91 336.531 301.07 C 336.21 301.712 335.163 301.033 334.704 301.492 C 334.4 301.796 333.914 302.352 333.51 302.756 C 333.252 303.015 333.854 304.239 333.44 304.653 C 333.276 304.817 332.62 304.489 332.456 304.653 C 332.347 304.762 332.356 305.405 332.175 305.496 C 331.936 305.615 331.506 305.338 331.332 305.425 C 330.654 305.765 331.57 307.506 331.122 307.954 C 330.943 308.133 331.104 308.744 330.911 308.938 C 330.598 309.251 329.915 309.302 329.576 309.64 C 329.219 309.998 329.622 311 329.295 311.326 C 329.215 311.406 328.622 311.848 328.382 311.607 C 328.165 311.391 328.383 310.625 328.171 310.413 C 327.443 309.684 326.977 307.198 326.977 305.917 C 326.977 305.346 327.341 302.698 326.977 302.335 C 325.892 301.249 325.907 297.098 326.766 295.38 C 327.126 294.661 327.271 292.487 327.82 291.938 C 329.504 290.254 330.832 287.942 332.667 286.107 C 333.521 285.253 334.839 284.848 335.688 284 C 336.804 282.883 337.321 281.172 338.427 280.066 C 338.772 279.722 338.477 278.752 338.849 278.38 C 339.541 277.688 339.59 276.444 340.324 275.711 C 340.764 275.271 339.699 274.791 339.411 275.078 C 339.197 275.292 338.656 275.271 338.427 275.5 C 337.305 276.622 336.613 278.508 335.547 279.574 C 334.522 280.6 335.012 281.598 333.58 282.314 C 331.791 283.208 333.059 278.842 332.527 278.31 C 332.026 277.809 329.145 278.32 328.804 278.661 C 327.189 280.276 326.326 283.106 324.589 284.843 C 324.049 285.382 326.961 286.335 325.994 287.302 C 325.483 287.812 323.586 286.969 323.113 287.442 C 321.731 288.824 320.595 288.085 319.601 287.091 C 318.842 286.332 321.779 285.405 321.779 285.405 C 321.779 285.405 319.455 285.821 319.25 285.616 C 319.138 285.504 317.643 284.131 317.072 284.702 C 316.683 285.092 317.179 286.492 316.791 286.88 C 316.365 287.306 315.053 285.923 314.543 286.178 C 313.56 286.669 311.145 286.713 310.469 286.037 C 310.276 285.844 309.288 286.107 309.064 286.107 C 308.378 286.107 306.597 287.099 306.113 287.583 C 304.898 288.798 303.898 290.641 302.742 291.797 C 301.956 292.583 301.997 294.369 301.196 295.169 C 300.21 296.156 299.557 297.722 298.527 298.752 C 297.881 299.397 296.892 299.895 296.279 300.508 C 296.103 300.684 297.588 300.885 297.754 300.719 C 297.901 300.571 298.61 299.257 298.948 299.595 C 299.229 299.876 298.948 300.719 299.229 301 C 299.574 301.344 300.256 301.254 300.634 301.632 C 300.833 301.831 300.505 302.557 300.704 302.756 C 300.935 302.987 301.724 303.001 302.039 302.686 C 302.526 302.199 300.583 301.593 300.985 300.789 C 301.041 300.677 301.867 300.266 302.109 300.508 C 302.926 301.324 304.094 301.79 304.989 302.686 C 305.73 303.426 304.799 305.656 305.692 306.549 C 307.086 307.944 302.951 309.499 304.498 311.045 C 304.856 311.404 304.708 312.532 304.708 313.223 C 304.708 314.873 304.062 316.624 303.374 318 C 302.574 319.599 301.448 322.103 300.142 323.409 C 299.444 324.108 299.899 325.689 299.159 326.43 C 298.714 326.874 297.782 327.778 297.473 328.397 C 296.773 329.797 293.567 330.883 292.345 329.661 C 291.781 329.097 290.854 330.77 290.448 330.363 C 290.296 330.211 290.6 329.602 290.448 329.45 C 290.08 329.083 290.104 325.439 290.518 325.025 C 291.223 324.32 292.889 324.48 293.539 323.83 C 294.466 322.903 294.471 321.212 295.295 320.388 C 295.997 319.686 295.718 318.069 296.349 317.438 C 296.39 317.397 296.49 316.595 296.49 316.595 C 296.49 316.595 295.197 317.044 295.085 317.157 C 294.262 317.98 290.573 318.211 289.394 318.211 C 287.519 318.211 289.531 315.164 288.689 314.322 C 287.959 313.592 285.952 314.506 285.351 313.905 C 284.503 313.056 284.388 311.356 283.515 310.483 C 283.293 310.261 283.738 309.371 283.515 309.148 C 283.014 308.647 283.181 307.479 282.681 306.978 C 281.191 305.488 279.231 304.085 277.173 303.056 C 276.042 302.49 276.225 304.338 275.838 304.725 C 274.348 306.215 275.093 309.892 273.585 311.401 C 272.719 312.267 271.398 312.335 270.497 313.237 C 270.192 313.542 267.972 313.237 267.493 313.237 C 265.101 313.237 262.962 313.094 261.651 314.405 C 261.491 314.566 258.962 314.97 258.647 314.656 C 258.049 314.057 255.987 314.665 255.393 314.072 C 253.811 312.49 249.875 313.061 248.133 311.318 C 246.719 309.904 245.165 308.434 243.626 306.895 C 243.063 306.332 243.395 304.995 242.792 304.391 C 242.398 303.998 241.62 303.887 241.206 303.473 C 241.029 303.296 237.808 302.616 237.284 303.14 C 235.663 304.76 234.709 307.051 233.195 308.564 C 232.162 309.597 230.983 306.938 229.774 308.147 C 228.909 309.011 228.888 311.183 229.69 311.985 C 229.818 312.113 230.608 313.404 230.608 313.404 C 230.608 313.404 229.256 313.505 229.19 313.571 C 228.244 314.517 226.49 314.434 225.518 315.407 C 224.931 315.993 223.942 316.648 223.265 317.326 C 222.452 318.138 222.59 319.67 221.846 320.414 C 221.028 321.232 219.051 320.412 218.091 322.333 C 217.464 323.587 216.617 324.891 215.587 325.921 C 215.065 326.443 216.117 328.704 216.255 328.842 C 216.924 329.511 215.079 331.854 214.669 332.263 C 213.503 333.43 211.196 333.316 209.913 334.6 C 209.438 335.075 208.027 334.567 207.493 335.101 C 207.023 335.57 206.742 336.269 206.241 336.77 C 206.104 336.907 206.036 337.9 206.158 338.021 C 206.767 338.631 210.503 339.262 209.579 341.109 C 209.002 342.264 204.67 344.462 203.153 342.945 C 202.752 342.544 202.767 341.39 202.319 340.942 C 201.268 339.891 199.114 342.862 198.814 342.862 C 199.076 343.674 194.142 342.162 193.079 343.225 C 192.649 343.655 189.227 348.295 188.33 347.398 C 186.467 345.534 185.468 343.097 183.295 340.923 C 181.505 339.134 177.599 341.559 175.956 339.916 C 173.344 337.304 179.387 335.577 177.827 334.017 C 177.134 333.324 170.294 327.45 172.072 325.672 C 172.491 325.252 174.218 323.213 175.237 324.233 C 175.675 324.67 175.802 330.143 177.971 327.974 C 179.008 326.937 177.208 323.858 176.964 323.37 C 175.686 320.814 170.743 318.655 168.043 321.355 C 165.311 324.087 168.735 332.839 170.777 334.88 C 171.953 336.056 170.062 340.929 168.187 339.053 C 166.809 337.675 163.3 339.207 162.288 337.182 C 159.909 332.426 157.229 330.396 153.942 327.111 C 151.321 324.489 154.856 323.276 153.079 321.499 C 152.701 321.121 148.73 322.362 147.611 322.362 C 146.482 322.362 142.273 321.37 142.144 321.499 C 141.949 321.694 141.697 325.081 140.561 323.945 C 138.964 322.348 138.66 319.454 137.108 317.902 C 135.056 315.85 133.022 319.715 132.072 318.765 C 131.895 318.588 131.722 318.425 131.559 318.269"/>
    <path style="fill: none; stroke: rgb(0, 0, 0);" d="M 131.559 318.269 C 130.618 317.371 129.999 316.724 130.777 315.168 C 131.167 314.389 134.309 310.931 132.792 309.413 C 132.159 308.781 126.701 303.765 129.343 303.765 C 131.311 303.765 132.439 301.253 131.048 299.862 C 130.787 299.6 131.045 298.916 130.779 298.651 C 130.034 297.906 129.011 297.78 128.222 296.991 C 128.058 296.827 128.05 295.718 128.177 295.465 C 128.368 295.083 127.985 294.413 128.177 294.03 C 128.572 293.239 128.303 292.423 128.85 291.877 C 129.038 291.689 130.512 290.309 130.958 290.755 C 131.431 291.228 131.992 292.124 132.573 292.415 C 132.766 292.512 132.929 293.067 133.246 292.908 C 133.596 292.734 133.689 292.421 133.919 292.191 C 134.048 292.062 134.386 290.774 134.098 290.486 C 133.609 289.997 133.163 289.506 132.573 288.916 C 132.136 288.479 132.561 287.289 132.169 286.897 C 131.753 286.481 132.036 285.326 132.304 285.058 C 132.388 284.974 133.117 285.108 133.156 285.148 C 133.777 285.769 135.517 285.162 136.386 285.596 C 136.503 285.655 137.479 285.894 137.642 285.731 C 138.049 285.324 138.639 285.048 139.078 284.609 C 139.696 283.991 141.518 285.309 142.218 284.609 C 142.516 284.312 141.59 283.29 141.59 282.815"/>
  </g>
  <path style="fill: none; stroke: rgb(0, 0, 0);" d="M 309.415 313.434 C 308.751 313.434 307.123 314.092 306.675 313.645 C 306.448 313.417 305.65 310.876 306.254 310.273 C 306.725 309.802 306.897 307.123 306.324 306.549 C 306.134 306.359 306.254 305.177 306.254 304.863 C 306.254 303.907 306.976 301.613 307.589 301 C 308.173 300.416 308.222 303.249 308.361 303.388 C 308.726 303.753 308.403 304.456 308.642 304.934 C 309.346 306.34 308.923 309.483 308.923 311.116 C 308.923 311.517 309.134 313.504 309.134 313.504 C 309.134 313.504 309.204 312.759 309.204 312.661"/>
  <path style="fill: none; stroke: rgb(0, 0, 0);" d="M 348.052 284.965 C 350.13 280.809 352.719 280.422 355.361 277.779 C 355.896 277.245 357.655 277.344 358.21 276.788 C 359.788 275.211 363.011 278.12 363.29 278.399 C 364.994 280.104 367.133 276.909 367.626 276.417 C 368.097 275.945 367.199 274.902 367.006 274.806 C 363.98 273.293 362.805 271.348 360.688 269.231 C 360.347 268.89 356.776 268.188 357.467 267.497 C 358.897 266.067 363.226 266.754 365.52 266.754 C 366.032 266.754 367.937 266.322 368.245 266.63 C 369.497 267.882 372.73 268.959 374.811 266.878 C 375.277 266.411 373.868 265.838 373.944 265.763 C 374.346 265.361 380.927 264.075 379.147 262.294 C 378.312 261.459 377.034 261.296 376.174 260.436 C 375.171 259.433 376.305 257.594 376.297 257.586 C 374.606 255.895 371.443 258.431 370.103 257.091 C 369.355 256.343 370.313 253.46 369.484 252.631 C 367.422 250.569 363.703 249.948 361.679 247.923 C 360.106 246.35 356.594 247.787 355.485 245.57 C 355.087 244.774 351.153 243.585 349.662 244.331 C 348.715 244.804 351.222 249.869 349.167 250.897 C 346.493 252.234 345.63 245.997 344.583 244.95 C 344.165 244.532 342.536 246.378 342.353 246.561 C 340.826 248.088 338.008 244.712 336.283 246.437 C 336.069 246.651 335.359 251.459 334.796 250.897 C 333.825 249.925 333.424 248.161 332.443 247.18 C 331.715 246.452 334.814 242.605 332.319 241.358 C 331.909 241.153 328.279 239.204 327.363 240.119 C 327.117 240.365 325.079 241.922 324.39 241.234 C 323.048 239.892 321.149 239.107 319.806 237.765 C 319.228 237.187 317.783 237.476 317.205 236.898 C 316.103 235.796 318.779 235.251 319.311 235.783 C 320.034 236.506 317.928 234.276 317.205 233.553 C 315.494 231.842 314.136 233.429 312.25 233.429 C 311.441 233.429 309.648 234.42 309.648 234.42 C 309.648 234.42 309.514 232.448 309.648 232.314 C 309.787 232.175 312.644 231.841 312.373 231.571 C 310.934 230.132 308.505 231.433 306.551 230.456 C 306.347 230.354 305.152 229.625 304.94 229.836 C 304.12 230.657 306.714 231.904 305.684 232.934 C 305.064 233.553 302.711 232.438 302.091 233.057 C 301.933 233.215 303.66 234.214 303.454 234.42 C 302.827 235.047 301.94 235.686 301.224 236.402 C 299.831 237.796 297.29 234.901 296.764 235.163 C 296.653 235.219 295.95 238.314 294.782 237.146 C 294.684 237.047 293.919 234.664 293.543 235.04 C 292.626 235.956 292.755 239.522 291.561 240.119 C 290.388 240.705 289.949 238.878 289.579 238.508 C 288.085 237.015 287.844 234.21 287.844 231.199 C 287.844 230.205 287.636 227.111 288.712 227.111"/>
  <path style="fill: none; stroke: rgb(0, 0, 0);" d="M 303.692 227.902 C 303.993 228.503 308.071 229.086 308.332 228.564 C 308.461 228.305 310.173 227.66 309.563 227.049 C 309.096 226.583 308.169 224.006 306.817 224.682 C 305.931 225.125 304.476 226.265 303.882 226.86 C 303.553 227.189 303.598 227.837 303.598 227.712"/>
  <path style="fill: none; stroke: rgb(0, 0, 0);" d="M 304.544 224.587 C 302.407 224.587 305.138 220.542 306.438 221.842 C 307.875 223.278 304.734 226.044 304.734 223.83"/>
  <path style="fill: none; stroke: rgb(0, 0, 0);" d="M 313.066 213.604 C 313.066 214.196 312.327 216.842 312.782 217.297 C 314.596 219.11 316.306 221.726 318.747 219.285 C 319.196 218.836 320.252 219.106 320.641 218.717 C 321.2 218.158 318.984 217.438 318.937 217.391 C 317.839 216.293 315.079 213.604 313.35 213.604"/>
  <path style="fill: none; stroke: rgb(0, 0, 0);" d="M 306.343 209.059 C 307.205 210.782 310.265 210.708 311.646 212.089 C 312.051 212.494 312.064 216.879 311.646 217.297 C 311.009 217.933 310.117 218.541 309.468 219.19 C 308.66 219.999 305.714 218.589 304.828 219.474 C 304.537 219.766 303.081 220.757 302.461 220.137 C 302.169 219.845 297.655 217.653 298.863 216.444 C 299.3 216.008 299.612 216.083 299.905 215.498 C 300.536 214.234 298.567 212.291 299.337 211.521 C 301.546 209.312 302.534 212.22 303.787 212.846 C 304.402 213.154 304.491 215.145 305.87 214.456 C 306.323 214.23 305.963 211.522 306.343 211.142 C 306.548 210.938 307.006 209.698 307.006 209.438"/>
  <path style="fill: none; stroke: rgb(0, 0, 0);" d="M 297.916 212.278 C 297.916 212.937 298.2 213.468 298.2 214.267 C 298.2 214.772 298.2 215.277 298.2 215.782 C 298.2 216.862 297.543 218.154 296.591 217.202 C 294.994 215.605 296.888 211.616 298.2 211.616"/>
  <path style="fill: none; stroke: rgb(0, 0, 0);" d="M 288.069 226.765 C 287.419 226.765 287.163 228.071 286.554 228.375 C 286.019 228.642 285.082 226.714 284.85 226.481 C 284.386 226.018 283.113 226.07 282.956 225.913 C 282.607 225.564 282.956 222.126 282.956 222.126 C 282.956 222.126 282.117 223.302 281.82 223.451 C 280.534 224.094 278.622 224.282 277.654 225.25 C 276.641 226.263 279.444 227.91 278.695 228.659 C 278.494 228.861 275.623 229.847 275.57 229.795 C 274.166 228.391 272.997 226.653 271.688 225.345 C 271.569 225.226 269.869 224.513 269.511 224.872 C 268.741 225.641 266.467 225.359 265.723 226.102 C 265.515 226.311 264.73 229.37 264.303 228.943 C 263.514 228.154 264.78 224.97 264.398 224.587 C 263.85 224.04 263.279 225.422 262.977 225.724 C 262.522 226.179 259.892 223.87 259.663 223.641 C 259.138 223.116 258.915 224.975 259.19 225.25 C 259.352 225.412 261.046 227.276 260.421 227.902 C 259.967 228.356 254.891 229.284 254.456 228.848 C 253.976 228.369 254.334 227.076 254.645 226.765 C 255.229 226.181 256.996 226.781 257.58 226.197 C 258.205 225.572 257.754 224.035 258.338 223.451 C 260.22 221.568 261.214 219.267 263.64 218.054 C 264.164 217.792 266.505 215.048 265.439 213.983 C 265.337 213.88 264.125 212.835 264.303 212.657 C 264.448 212.512 265.918 211.053 265.344 210.479 C 264.741 209.876 263.721 209.613 263.167 209.059 C 262.535 208.428 263.419 206.282 262.788 205.65 C 261.871 204.734 260.938 206.174 260.421 206.692 C 259.787 207.325 257.603 206.007 256.633 206.976 C 256.557 207.052 255.54 208.534 255.118 208.112 C 254.686 207.68 257.285 205.261 256.065 204.041 C 254.791 202.767 252.421 206.361 251.52 205.461 C 251.477 205.418 251.29 204.65 251.426 204.514 C 251.731 204.209 252.567 204.319 252.846 204.041 C 253.243 203.643 255.908 200.664 255.497 200.253 C 252.704 197.46 248.806 201.642 247.165 203.283 C 246.018 204.43 248.227 207.429 246.975 208.68 C 245.913 209.743 242.873 207.859 241.768 208.964 C 241.394 209.338 243.587 209.701 243.093 210.195 C 242.901 210.388 239.779 211.047 239.779 211.047 C 239.779 211.047 241.073 209.501 240.726 209.154 C 239.68 208.107 235.14 212.784 235.14 210.669"/>
  <path style="fill: none; stroke: rgb(0, 0, 0);" d="M 264.019 223.073 C 263.312 225.194 259.362 222.332 260.799 220.895 C 260.984 220.71 263.971 220.847 264.113 220.989 C 264.735 221.61 263.356 223.969 263.356 222.978"/>
  <path style="fill: none; stroke: rgb(0, 0, 0);" d="M 234.761 211.167 C 234.761 213.331 232.829 212.214 231.839 213.203 C 231.376 213.666 231.768 215.098 231.131 215.416 C 230.575 215.694 228.473 215.33 228.121 215.682 C 227.21 216.593 226.577 217.846 225.642 218.781 C 225.256 219.167 224.049 218.692 223.694 219.046 C 223.073 219.668 222.7 220.749 222.101 221.348 C 221.605 221.844 223.038 223.171 223.163 223.296 C 223.916 224.049 222.16 225.361 222.012 225.509 C 220.188 227.333 217.071 225.404 215.284 227.191 C 215.124 227.351 214.821 230.005 215.107 230.29 C 215.746 230.929 216.288 231.295 216.966 231.972 C 217.438 232.444 217.29 233.536 217.763 234.008 C 218.218 234.464 219.379 234.386 219.887 234.894 C 220.729 235.736 220.415 237.546 221.215 238.347 C 221.302 238.433 221.279 239.725 221.215 239.852 C 220.519 241.244 221.5 243.531 220.773 244.987 C 220.684 245.165 220.441 246.16 219.976 245.695 C 219.673 245.392 219.872 244.617 219.533 244.278 C 219.095 243.84 218.205 244.898 218.205 244.898 C 218.205 244.898 218.213 243.12 218.294 243.039 C 218.5 242.832 219.327 243.246 219.533 243.039 C 219.6 242.973 219.771 241.683 219.622 241.534 C 218.884 240.796 219.917 238.287 219.179 237.55 C 218.781 237.151 217.718 237.417 217.32 237.019 C 215.995 235.694 214.991 233.45 213.69 232.149 C 212.789 231.248 212.633 235.238 212.451 235.602 C 211.536 237.432 211.449 237.787 212.893 239.232 C 213.546 239.885 212.315 241.486 211.565 240.737 C 210.66 239.832 209.723 239.161 208.998 238.435 C 208.849 238.286 208.971 236.603 209.086 236.487 C 209.527 236.047 211.167 233.212 210.591 232.061 C 210.303 231.483 207.741 228.271 206.873 229.139 C 205.374 230.638 208.727 233.925 207.847 234.805 C 205.347 237.305 205.834 241.669 207.316 244.633 C 208.185 246.371 207.12 247.219 206.342 247.997 C 206.234 248.104 205.724 249.416 205.456 249.148 C 204.177 247.868 206.426 243.388 205.279 242.242 C 203.762 240.725 202.747 239.163 203.951 236.753 C 204.43 235.795 206.297 231.307 205.279 230.29 C 204.841 229.852 203.303 230.793 202.8 230.29 C 200.023 227.513 199.418 233.76 198.462 234.717 C 198.004 235.176 198.946 236.624 198.551 237.019 C 197.706 237.863 196.342 238.254 195.452 239.143 C 194.057 240.539 198.104 241.892 196.692 243.305 C 196.222 243.774 194.769 246.782 195.275 247.289 C 196.229 248.243 197.617 248.834 198.551 249.767 C 198.625 249.841 199.347 250.742 198.993 251.096 C 198.347 251.742 197.383 250.458 196.957 250.033 C 195.823 248.899 191.86 246.138 190.317 246.138 C 189.891 246.138 187.499 245.149 187.13 245.518 C 186.427 246.221 187.616 248.662 186.953 249.325 C 185.963 250.315 185.863 252.185 184.917 253.132 C 184.594 253.454 184.917 248.451 184.917 248.262 C 184.613 248.357 182.622 250.44 182.278 250.783 C 181.621 251.441 179.359 250.434 178.672 251.121 C 178.261 251.533 178.679 253.259 177.996 253.6 C 176.582 254.307 177.726 250.062 177.32 249.657 C 176.607 248.943 174.125 250.522 173.376 250.896 C 171.239 251.965 170.709 253.113 169.207 254.615 C 168.957 254.864 168.201 259.806 166.841 258.446 C 166.605 258.21 164.686 256.67 164.925 256.192 C 165.107 255.829 167.395 254.381 167.179 254.164 C 165.953 252.938 163.002 251.67 162.333 250.333 C 161.987 249.641 160.852 248.659 160.305 249.206 C 159.681 249.83 161.69 252.619 161.882 252.812 C 162.653 253.582 161.451 256.324 162.221 257.094 C 162.382 257.255 164.492 258.315 163.46 259.347 C 163.252 259.555 162.365 260.997 161.77 260.699 C 161.54 260.585 160.632 258.006 159.403 259.235 C 158.593 260.045 157.398 260.79 156.474 261.714 C 155.315 262.873 156.169 264.205 155.572 265.996 C 155.538 266.097 155.572 267.348 155.572 267.348 C 155.572 267.348 151.308 264.401 151.065 264.643 C 149.806 265.903 152.376 267.42 152.981 268.024 C 153.838 268.881 152.201 270.625 151.516 269.939 C 150.457 268.881 149.919 267.666 148.924 266.672 C 147.895 265.642 150.336 262.961 149.6 261.488 C 149.45 261.189 144.882 258.995 145.994 257.882 C 147.58 256.297 151.004 259.677 151.403 260.474 C 151.56 260.788 153.238 261.682 153.769 261.15 C 154.135 260.784 155.042 260.891 155.46 260.474 C 156.67 259.263 157.29 256.954 158.502 255.741 C 159.946 254.297 155.225 252.69 154.896 252.361 C 154.352 251.817 154.782 250.219 154.22 249.657 C 153.711 249.147 152.535 249.997 151.854 249.657 C 150.548 249.004 148.639 248.357 147.797 247.516 C 147.558 247.277 144.178 244.937 143.74 245.375 C 143.071 246.044 143.252 247.215 142.614 247.854 C 141.931 248.537 140.591 249.087 139.909 249.769 C 139.834 249.844 139.163 251.502 139.459 251.798 C 140.277 252.616 141.832 253.051 142.388 254.164 C 143.132 255.651 141.475 258.909 140.923 259.46 C 140.595 259.788 142.179 263.645 142.388 263.855 C 142.675 264.141 142.276 265.578 142.276 265.883 C 142.276 267.317 140.379 269.977 141.149 271.517 C 141.51 272.239 143.279 273.197 143.853 273.771 C 145.75 275.667 139.781 278.375 140.923 279.518 C 141.974 280.568 144.162 277.797 145.656 279.292 C 146.573 280.21 145.058 282.465 144.417 282.785 C 143.829 283.079 143.867 281.56 143.402 281.095 C 142.539 280.232 138.96 281.385 140.022 282.447 C 141.412 283.838 142.388 281.783 142.388 280.757"/>
  <path style="fill: none; stroke: rgb(0, 0, 0);" d="M 203.155 229.759 C 202.595 229.759 198.874 227.664 200.233 226.306 C 200.431 226.108 200.884 226.335 201.118 226.218 C 203.945 224.804 201.915 229.995 201.915 229.316"/>
  <path style="fill: none; stroke: rgb(0, 0, 0);" d="M 229.783 167.355 C 229.783 166.58 234.101 165.244 234.101 167.985 C 234.101 168.2 234.237 169.197 234.101 169.334 C 232.561 170.874 229.243 168.811 229.243 166.995"/>
  <path style="fill: none; stroke: rgb(0, 0, 0);" d="M 233.021 178.059 C 232.16 178.346 230.685 182.377 231.942 183.006 C 232.262 183.166 233.509 184.676 234.28 183.905 C 236.196 181.989 234.475 177.969 232.482 177.969"/>
  <path style="fill: none; stroke: rgb(0, 0, 0);" d="M 239.947 166.636 C 238.926 166.636 238.177 168.586 237.519 169.244 C 237.122 169.64 236.417 169.806 235.989 170.233 C 234.985 171.238 234.997 173.564 234.011 174.551 C 233.913 174.648 233.753 176.632 233.921 176.799 C 234.872 177.751 235.588 179.006 236.529 179.948 C 238.011 181.429 234.362 184.797 235.72 186.154 C 236.254 186.688 237.065 187.409 237.698 188.043 C 238.697 189.041 241.296 188.583 242.286 189.572 C 242.751 190.037 244.519 189.197 244.984 189.662 C 246.063 190.74 244.538 194.875 243.905 195.508 C 243.367 196.046 245.783 197.313 246.153 197.127 C 246.876 196.766 246.958 195.466 247.772 195.059 C 248.942 194.474 251.597 194.832 252.54 193.889 C 255.554 190.875 251.879 186.932 249.931 184.985 C 248.272 183.326 247.128 187.488 245.434 185.794 C 243.987 184.347 246.772 181.376 245.524 180.128 C 244.803 179.407 243.639 179.322 243.005 178.688 C 242.406 178.089 242.346 176.949 241.746 176.35 C 239.969 174.572 243.724 172.481 242.825 171.583 C 242.038 170.795 239.857 167.603 239.857 166.995"/>
  <path style="fill: none; stroke: rgb(0, 0, 0);" d="M 186.756 244.342 C 185.861 243.446 185.74 241.776 184.586 241.198 C 183.422 240.617 183.274 243.663 183.613 244.342 C 183.729 244.574 185.319 246.902 186.008 246.213 C 186.09 246.131 186.506 245.24 186.607 245.24"/>
  <path style="fill: none; stroke: rgb(0, 0, 0);" d="M 182.842 240.867 C 181.22 240.867 178.413 234.737 179.574 232.416 C 181.067 229.429 181.749 225.508 184.081 223.176 C 185.039 222.218 184.708 219.957 185.659 219.007 C 189.521 215.144 193.759 212.308 198.843 209.767 C 199.289 209.543 202.867 206.805 201.885 205.823 C 200.981 204.919 199.436 204.388 198.617 203.569 C 197.879 202.831 196.13 204.362 195.687 204.583 C 193.706 205.574 193.356 207.89 190.955 209.091 C 189.967 209.585 186.548 208.427 185.771 209.203 C 184.636 210.339 183.193 211.218 182.053 212.358 C 178.171 216.24 179.219 223.982 175.517 227.683 C 174.452 228.748 174.962 231.394 173.714 232.641 C 171.357 234.999 177.14 237.982 177.545 238.388 C 178.893 239.736 176.203 241.328 176.869 241.994 C 177.301 242.426 182.391 242.219 182.391 242.219 C 182.391 242.219 182.729 240.092 182.729 239.853"/>
  <path style="fill: none; stroke: rgb(0, 0, 0);" d="M 169.432 250.22 C 169.432 249.795 169.207 249.32 169.207 248.755 C 169.207 243.748 173.151 249.262 170.559 250.558 C 169.911 250.882 169.401 250.107 169.207 250.107"/>
</svg>
